<?xml version="1.0" encoding="UTF-8"?><svg id="Ebene_1" xmlns="http://www.w3.org/2000/svg" viewBox="0 0 284.46 280.51"><defs><style>.cls-1{fill:#90d033;}.cls-2{fill:#039a9a;fill-rule:evenodd;}</style></defs><path class="cls-2" d="M13.69,269.52h7.49c11.49,0,20.98-7.49,21.48-21.48,.5-13.49-6.99-21.48-17.99-21.48H13.69v42.96h0ZM.2,215.56H25.68c17.49,0,29.98,12.99,30.47,32.97,0,17.99-14.99,31.97-32.47,31.97H.2v-64.95H.2Zm171.36,0h43.46v10.99h-29.48v14.49h27.48v10.99h-27.48v17.99h30.97v10.49h-44.96v-64.95h0Zm-86.43,64.95v-10.49h17.99l-15.99-40.97-19.48,51.46h-13.99l24.98-64.95h16.99l25.48,64.95h-35.97Zm24.98-53.96v-10.99h55.95v10.99h-20.48v53.96h-14.49v-53.96h-20.98Zm139.88-10.99v10.99h16.49l-14.99,39.47-18.48-50.46h-14.49l25.48,64.95h15.49l24.98-64.95h-34.47Z"/><polygon class="cls-1" points="0 0 283.46 0 283.46 200.53 0 200.53 0 0 0 0"/></svg>